<?xml version="1.0" encoding="utf-8"?>
<!-- Generator: Adobe Illustrator 24.2.1, SVG Export Plug-In . SVG Version: 6.00 Build 0)  -->
<svg version="1.1" id="Layer_1" xmlns="http://www.w3.org/2000/svg" xmlns:xlink="http://www.w3.org/1999/xlink" x="0px" y="0px"
	 viewBox="0 0 15.14 10.5" style="enable-background:new 0 0 15.14 10.5;" xml:space="preserve">
<style type="text/css">
	.st0{fill:#BB2926;}
</style>
<g>
	<path class="st0" d="M11.77,5.64l-0.25,0.45c-0.4,0.54-0.46,0.66-0.61,0.84c-0.36,0.38-0.38,0.43-0.69,0.75
		c-0.23,0.28-0.4,0.46-0.6,0.67L8.87,9.09C8.68,9.32,8.48,9.61,8.26,9.88c-0.25,0.3-0.38,0.62-0.68,0.62
		c-0.28,0-0.52-0.36-0.71-0.57C6.55,9.57,6.35,9.26,6.12,8.98C5.91,8.65,5.73,8.51,5.53,8.23C5.13,7.73,5.1,7.73,4.8,7.36
		c-0.14-0.21-0.4-0.45-0.48-0.55l-0.3-0.47C3.66,5.87,3.34,5.41,3.34,5.41c-0.27-0.33-0.55-0.7-0.79-1.02
		C2.18,3.86,1.89,3.56,1.68,3.25C1.28,2.72,1.1,2.63,0.87,2.29C0.55,1.82,0.33,1.39,0,0.96c0.15-0.18,0.18-0.18,0.47-0.18
		c0.79,0,0.71,0.66,1.28,1.1c0,0.3,0.77,1.15,0.97,1.38c0.04,0.12,0.43,0.55,0.49,0.61l0.53,0.79c0.21,0.2,0.63,0.6,0.77,0.93
		C4.58,5.73,4.76,5.85,5,6.08C5.25,6.34,5.33,6.5,5.47,6.75c0.63,0.8,0.81,1.07,1.43,1.82c0.22-0.26,0.56-0.53,0.8-0.81
		C8.11,7.09,8.54,6.77,8.98,6.2C9,6.19,9.18,5.99,9.19,5.93c0-0.08,0.61-0.66,0.67-0.79c0.32-0.34,0.43-0.55,0.71-0.93
		c0.21-0.3,0.57-0.75,0.84-1.16c0.23-0.34,0.67-0.8,0.95-1.09c0.26-0.33,0.29-0.43,0.59-0.76c0.23-0.36,0.43-0.74,0.77-1.09
		C13.86,0,13.96,0,14.13,0c0.28,0,0.59,0.34,0.83,0.52c0.15,0.15,0.18,0.26,0.18,0.47c0,0.28-0.2,0.55-0.38,0.79
		c-0.11,0.16-0.28,0.4-0.43,0.63l-0.52,0.61l-0.39,0.46c-0.3,0.32-0.46,0.5-0.81,0.96c-0.18,0.23-0.54,0.75-0.55,0.81L11.77,5.64z"
		/>
</g>
</svg>
