<?xml version="1.0" encoding="utf-8"?>
<!-- Generator: Adobe Illustrator 24.0.0, SVG Export Plug-In . SVG Version: 6.00 Build 0)  -->
<svg version="1.1" id="Layer_1" xmlns="http://www.w3.org/2000/svg" xmlns:xlink="http://www.w3.org/1999/xlink" x="0px" y="0px"
	 viewBox="0 0 40.37 23.91" style="enable-background:new 0 0 40.37 23.91;" xml:space="preserve">
<g>
	<path d="M11.21,2.35c0,0.14,0,0.26-0.1,0.41c-0.38-0.17-0.58-0.46-0.89-0.74C9.48,1.37,8.78,1.03,7.75,1.03
		c-0.1,0-0.53,0.02-0.6,0.02C6.84,1.08,6.84,1.22,6.58,1.37c-0.02,0.02-0.22,0.07-0.24,0.1C6.29,1.49,6.12,1.58,6.1,1.63
		C5.4,2.26,4.7,3,4.39,3.89C4.34,4.01,4.18,4.68,4.15,4.87c-0.02,0.07-0.07,0.79-0.1,0.89c0,0.02-0.05,0.14-0.07,0.17
		c0,0.05,0,0.36,0,0.43c0,0.12,0,0.43,0,0.46c0,0.14,0.05,0.89,0.07,1.06c0.02,0,0.07,0.05,0.1,0.07C4.42,8.5,4.7,9.02,5.04,9.55
		c0.1,0.19,0.12,0.41,0.24,0.58c0.24,0.36,0.62,0.74,0.89,1.06c0.02,0.05,0.29,0.36,0.34,0.41c0.22,0.26,0.74,0.29,1.03,0.41
		c0.05,0,0.17,0.07,0.17,0.07c0.02,0.02,0.07,0.17,0.1,0.17c0.02,0.02,0.29,0.07,0.31,0.07c0.05,0.02,0.5,0.24,0.58,0.24
		c0.24,0.07,1.08,0.24,1.2,0.26c0.19,0,0.72,0.02,1.22,0.02c0.53,0,1.03-0.02,1.22-0.02c0.12,0.07,0.26,0.07,0.43,0.07
		c0.12,0,0.26,0,0.36,0c0.02,0,0.07,0,0.1,0c0.48,0.02,1.1,0.05,1.61,0.17c0.38,0.07,0.77,0.05,1.15,0.14c0,0.02,0.14,0.1,0.14,0.1
		c0.07,0.02,0.24,0.07,0.24,0.07c0.1,0,0.82,0,0.91,0c0.24,0.02,0.41,0.26,0.65,0.26c0.14,0,0.17-0.12,0.17-0.26
		c0-0.58-0.72-0.7-0.98-1.13c-0.05-0.07-0.43-0.86-0.58-1.13c-0.14-0.34-0.17-0.7-0.17-1.06c0-0.1,0-0.17,0-0.26
		c0-0.46,0.02-1.01,0.17-1.44c0.17-0.46,0.46-0.58,0.82-0.82c0.22-0.14,0.26-0.5,0.48-0.65C18.6,6.38,19.54,6,20.47,6
		c0.02,0,0.05,0,0.05,0c0.74,0.14,1.56,0.12,2.26,0.48c0.6,0.31,1.27,0.67,1.8,1.13c0.02,0.05,0.36,0.38,0.38,0.41
		c0.07,0.07,0.67,0.5,0.74,0.58c0.07,0.07,0.72,0.72,0.82,0.82c0,0.02,0.22,0.14,0.24,0.14c0.02,0.02,0.14,0.24,0.14,0.26
		c0.17,0.22,0.62,0.77,0.65,0.79c0.05,0.05,0.53,0.29,0.58,0.34c0.46,0.26,0.82,0.7,1.3,0.96c0.05,0.02,0.43,0.22,0.48,0.26
		c0.05,0.02,0.46,0.29,0.5,0.31c0.05,0.02,0.43,0.14,0.48,0.17c0.02,0,0.14,0.05,0.17,0.07c0.36,0.22,0.6,0.26,1.06,0.41
		c0.31,0.1,0.62,0.29,0.96,0.34c0.02,0,0.17,0,0.29,0c0.05,0,0.1,0,0.12,0s0.14,0.07,0.17,0.07c0.07,0.02,0.34,0.07,0.41,0.07
		c0.05,0,0.43,0,0.48,0c0.05,0.02,0.5,0.14,0.58,0.17h0.02c0.43,0,0.77-0.34,1.18-0.41c0.55-0.1,1.18-0.02,1.63-0.41
		c0.12-0.1,0.62-0.6,0.72-0.72c0.02-0.31,0.24-0.36,0.41-0.65c0.12-0.22,0.19-0.65,0.24-0.89c0.02-0.12,0.14-0.96,0.17-1.06
		c0-0.05,0.07-0.29,0.07-0.34c0-0.02-0.14-0.29-0.17-0.31c-0.02-0.12-0.26-1.1-0.31-1.22c0-0.02-0.14-0.29-0.17-0.31
		c-0.02-0.1-0.19-0.48-0.24-0.58c-0.19-0.12-0.58-0.24-0.82-0.24c-0.29,0-0.67,0.17-1.06,0.17c-0.43,0-0.7-0.05-1.03-0.34
		c-0.02-0.02-0.1-0.07-0.1-0.07C35.64,6.31,35.6,6.02,35.6,6c0.02-0.26,0.31-0.43,0.48-0.58c0.05-0.02,0.36-0.36,0.41-0.41
		c0.17-0.14,0.79-0.31,1.06-0.31c0.36,0,1.2,0.12,1.46,0.48c0.12,0.19,0.62,0.98,0.72,1.13c0.24,0.41,0.34,0.84,0.58,1.22
		c0,0.41,0.07,2.28,0.07,2.66c0,0.02,0,0.12,0,0.14s0,0.1,0,0.12c-0.02,0.19-0.07,0.82-0.07,0.89c-0.02,0.17-0.17,0.31-0.17,0.48
		c0,0.14,0.07,0.26,0.07,0.41c0,0.53-0.38,1.25-0.65,1.7c0,0.02-0.07,0.14-0.07,0.17c-0.02,0.02-0.07,0.22-0.1,0.24
		c-0.02,0.05-0.36,0.5-0.38,0.55c-0.36,0.53-0.62,1.1-0.98,1.63c-0.02,0.05-0.26,0.31-0.31,0.41c-0.34,0.38-0.58,0.82-0.91,1.2
		c-0.43,0.53-1.01,0.86-1.54,1.3c-0.36,0.31-0.67,0.62-1.06,0.91c-0.07,0.05-0.41,0.29-0.48,0.31c-0.05,0.02-0.43,0.22-0.48,0.24
		c-0.05,0.05-0.43,0.38-0.48,0.41c-0.84,0.48-1.9,0.98-2.86,1.3c-0.02,0.02-0.36,0.07-0.38,0.07c-0.14,0.07-1.25,0.53-1.39,0.58
		c-1.25,0.38-2.62,0.48-3.89,0.58c-0.17,0.07-0.24,0.07-0.38,0.07c-0.05,0-0.17,0-0.19,0c-0.74-0.02-2.74-0.14-2.83-0.17
		c-0.14,0-1.34-0.24-1.7-0.31c-0.07-0.02-0.72-0.22-0.79-0.24c-0.05-0.02-0.38-0.07-0.41-0.1c-0.05,0-0.29-0.12-0.34-0.14
		c-0.02-0.02-0.29-0.24-0.31-0.26c-0.05,0-0.38-0.05-0.41-0.07c-0.05-0.02-0.29-0.22-0.34-0.24c-0.07-0.05-0.65-0.43-0.72-0.48
		c0-0.02-0.07-0.07-0.1-0.1c-0.6-0.67-1.08-1.25-1.44-2.09c0-0.12-0.02-0.55-0.02-0.65c0-0.17,0.02-0.62,0.02-0.65
		c0-0.1,0.05-0.43,0.07-0.5c0-0.02,0.14-0.29,0.17-0.31c0.02-0.05,0.14-0.46,0.17-0.5c0.12-0.29,0.41-0.43,0.65-0.65
		c0.29-0.26,0.55-0.6,0.96-0.72c0.05,0,0.36-0.07,0.41-0.07c0.07-0.05,0.72-0.38,0.82-0.41c0.05-0.02,0.5-0.07,0.55-0.1
		c0.02,0,0.14-0.12,0.17-0.14v-0.05v-0.05c-0.02-0.02-0.14-0.14-0.17-0.14c-0.05-0.02-0.43-0.07-0.48-0.1
		c-0.02,0-0.14-0.07-0.17-0.07c-0.31-0.12-0.62-0.1-0.96-0.17c-0.72-0.17-1.44-0.41-2.18-0.41c-0.36,0-0.7,0.1-1.06,0.1
		c-0.29,0-0.55-0.1-0.82-0.1c-0.02,0-0.07,0-0.07,0c-0.07,0.02-0.29,0.14-0.34,0.17H9.65c-0.48-0.36-1.37-0.19-1.94-0.34
		c-0.31-0.07-0.74-0.55-0.96-0.55c-0.02,0-0.07,0.05-0.1,0.07c0,0,0,0.02,0,0.05c0,0,0,0.02,0,0.05c0.02,0.02,0.14,0.31,0.17,0.38
		c0,0.02,0.07,0.14,0.07,0.17c0.02,0.05,0.07,0.36,0.1,0.41c0.05,0.17,0.41,0.96,0.48,1.13c0,0.12,0,0.7,0,0.82
		c0,0.22,0,0.77,0,0.82c0,0.19-0.12,1.27-0.17,1.54c-0.02,0.14-0.12,0.58-0.14,0.65c-0.02,0.05-0.31,0.36-0.34,0.41
		c-0.02,0.02-0.14,0.29-0.17,0.31c-0.02,0.05-0.36,0.38-0.41,0.41c0,0.02-0.07,0.14-0.07,0.17L6.1,20.74
		c-0.96,0.82-1.56,1.39-2.9,1.39c-0.05,0-0.1,0-0.17,0c-0.22,0-0.53-0.02-0.53-0.29c0-0.41,2.21-1.51,2.62-2.23
		c0.02-0.02,0.07-0.29,0.07-0.31c0.02-0.02,0.17-0.22,0.17-0.24C5.86,18.17,6,17.14,6,16.13c0-0.91-0.12-1.63-0.55-2.42
		c-0.02-0.02-0.17-0.14-0.17-0.17c-0.48-0.58-1.03-1.1-1.46-1.7c-0.07-0.1-0.29-0.43-0.31-0.48c-0.02-0.02-0.07-0.22-0.1-0.24
		c-0.02-0.07-0.36-0.58-0.48-0.74C2.57,9.84,2.47,9.46,2.28,8.83C2.18,8.54,2.02,8.3,1.94,8.02C1.87,7.63,1.85,7.27,1.7,6.89
		C1.68,6.79,1.39,6.05,1.3,5.83C1.08,5.28,0,4.94,0,4.3c0-0.14,0.24-0.48,0.41-0.48c0.38,0,0.7,0.24,1.1,0.24
		c0.74,0,0.84-0.55,1.42-0.89c0.24-0.26,1.3-1.46,1.54-1.7C4.78,1.1,5.26,0.91,5.69,0.72c0.07-0.24,0.43-0.48,0.65-0.55
		c0,0,0.05,0,0.1,0c0.1,0,0.19,0,0.22,0C7.06,0.12,7.46,0,7.87,0c0.74,0,1.68,0.17,2.26,0.65c0.05,0.02,0.24,0.22,0.26,0.24
		c0.53,0.46,0.82,0.58,0.82,1.3C11.21,2.23,11.21,2.3,11.21,2.35z"/>
</g>
</svg>
