<?xml version="1.0" encoding="utf-8"?>
<!-- Generator: Adobe Illustrator 24.0.0, SVG Export Plug-In . SVG Version: 6.00 Build 0)  -->
<svg version="1.1" id="Layer_1" xmlns="http://www.w3.org/2000/svg" xmlns:xlink="http://www.w3.org/1999/xlink" x="0px" y="0px"
	 viewBox="0 0 44.83 10.27" style="enable-background:new 0 0 44.83 10.27;" xml:space="preserve">
<g>
	<path d="M25.44,1.3c0.5-0.1,1.39-0.22,2.45-0.25c2.05-0.1,4.21,0.41,4.93,0.96c1.09-0.34,2.96-0.65,4.64-0.65
		c3.68,0,7.29,1.01,7.38,3.37c0.07,2.17-3.15,3.45-6.09,3.45c-2.85,0-6.06-0.56-8.69-1.2c-0.74,1.7-3.72,3.21-6.52,3.27
		c-2.36,0.07-4.28-0.53-5.67-1.86c-0.53,0.11-1.61,0.19-2.04,0.2c-1.77,0.05-3.31-0.17-4.86-1.08C9.2,8.01,7.31,8.26,6.17,8.28
		C4.8,8.32,0.1,8.13,0,5.36c-0.06-1.67,1.82-3.27,5.83-3.42c1.92-0.07,3.14,0.02,4.53,0.18c1.48-1.19,3.8-2.01,7.29-2.11
		C21.22-0.09,24.3,0.82,25.44,1.3z M0.25,5.33C0.33,7.28,3.4,7.65,5.79,7.6c1.48-0.04,3.06-0.26,4.31-0.58
		C9.7,6.62,9.12,5.84,9.07,4.86c-0.05-0.95,0.25-1.56,0.7-2.12C8.76,2.53,7.09,2.43,5.97,2.47C3.42,2.55,0.17,3.25,0.25,5.33z
		 M10.51,6.89c1.22-0.31,3.99-1.4,7.12-2.72c-1.16-0.23-4.1-0.88-7.51-1.37C9.8,3.08,9.27,3.73,9.32,4.82
		C9.33,5.27,9.5,6.09,10.51,6.89z M10.75,2.2c1.57,0.18,5.23,0.79,8.02,1.45c1.55-0.53,3.33-1.38,5.52-2.06
		c-1.08-0.34-3.63-1.01-7.1-0.89C15.27,0.76,12.79,0.82,10.75,2.2z M23.83,5.62c-1.65-0.38-3.06-0.76-4.88-1.13
		c-2.3,0.88-5.38,2.41-7.58,2.88c0.31,0.26,1.73,0.79,3.74,0.7C17.73,7.93,20.14,7.16,23.83,5.62z M29.81,6.93
		c-1.35-0.32-2.6-0.6-4.52-1.02l-0.06,0.04c-2.17,0.92-5.07,1.86-7.09,2.42c0.31,0.31,1.7,1.38,5.09,1.27
		C27.06,9.52,29.19,8.28,29.81,6.93z M28.68,3.56c-0.41-0.53-1.91-1.32-3.15-1.58c-1.84,0.5-3.13,1.03-5.37,1.98
		c1.95,0.47,2.95,0.71,4.8,1.18C26,4.7,26.66,4.41,28.68,3.56z M29.06,3.38c1.06-0.48,2.21-0.91,3.31-1.25
		c-0.5-0.29-1.27-0.61-3.54-0.61c-0.53,0-1.45,0.1-2.52,0.25C27.17,2.03,28.14,2.56,29.06,3.38z M29.91,6.21
		c0.07-0.5-0.11-1.51-0.64-2c-1.08,0.48-1.56,0.65-2.79,1.21C28.15,5.84,29.07,6.04,29.91,6.21z M44.38,4.73
		C44.32,3.07,42.63,1.9,38.1,1.9c-1.61,0-3.24,0.31-4.55,0.71c0.28,0.28,0.53,0.8,0.55,1.25c0,0.4-0.13,0.68-0.29,0.85
		c-0.12,0.11-0.25,0.11-0.14,0c0.11-0.17,0.14-0.46,0.14-0.73c-0.04-0.32-0.12-0.85-0.61-1.25c-1.07,0.29-2.13,0.7-3.56,1.32
		c0.31,0.46,0.67,1.5,0.54,2.21c2.48,0.54,6.64,1.35,9.15,1.25C42.53,7.37,44.44,6.52,44.38,4.73z"/>
</g>
</svg>
