<?xml version="1.0" encoding="utf-8"?>
<!-- Generator: Adobe Illustrator 24.0.0, SVG Export Plug-In . SVG Version: 6.00 Build 0)  -->
<svg version="1.1" id="Layer_1" xmlns="http://www.w3.org/2000/svg" xmlns:xlink="http://www.w3.org/1999/xlink" x="0px" y="0px"
	 viewBox="0 0 67.47 14" style="enable-background:new 0 0 67.47 14;" xml:space="preserve">
<g>
	<path d="M16.42,6.07C19.4,4.9,23.2,3.34,24.7,2.76c1.33-0.54,3.19-0.99,3.87-0.99c1.02,0,1.22,0.18,0.69,0.71
		c-0.79,0.84-3.03,4-3.72,4.87c-0.2,0.23-0.13,0.48,0.1,0.31c1.27-1.05,9.99-7.14,10.68-7.39c0.69-0.41,1.04-0.28,1.38,0
		c0.41,0.31,0.2,0.41,0,0.54c-3.8,3.39-5.58,6.02-6.02,6.7c-0.36,0.33-0.28,0.41,0.28,0.05c0.84-0.59,6.17-3.85,7.34-4.38
		c0.69-0.28,1.05-0.28,1.73-0.03c0.69,0.15,0.69,0.36,0.31,0.51c-1.1,0.43-3.08,1.58-3.08,3.87c0,1.3,0.89,1.86,3.11,1.86
		c2.27,0,5.79-0.99,9.99-2.5c5.97-2.12,9.02-3.06,11.47-3.03c3.21,0.03,4.64,1.58,4.64,3.11c0,1.73-2.12,3.11-2.57,3.26
		c-0.69,0.26-0.69-0.03-0.36-0.31c0.69-0.41,1.89-1.66,1.89-2.96c0-1.1-0.89-1.91-3.06-1.94C60.74,5,57.35,6.07,52.49,7.91
		c-3.59,1.33-7.32,2.65-10.4,2.65c-2.09,0-5.07-0.84-5.07-2.96c0-0.92,1.05-2.17,1.45-2.65c0.33-0.41-0.05-0.43-0.48-0.2
		c-3.8,1.99-7.52,4.59-10.78,8.72C26.87,13.9,26.31,14,25.67,14c-0.41,0-0.41-0.13-0.2-0.54c0.84-1.66,5.97-8.31,6.96-9.2
		c0.51-0.41-0.05-0.36-0.38-0.13c-3.67,1.99-7.95,5.53-8.51,5.94c-0.33,0.41-0.69,0.28-0.69,0c0-0.15-0.2-0.59,0.2-1.17
		c0.1-0.54,3.11-4.84,3.59-5.33C27,3.29,27,3.17,26.87,3.17c-0.23,0-6.45,2.47-9.76,3.93C13.03,8.9,9.02,9.67,6.65,9.69
		C3.82,9.72,2.29,8.9,1.33,8.09S0,6.35,0,5.46c0-2.65,3.19-4.38,5.56-4.38c0.56,0.15,0.33,0.28,0,0.36
		C2.57,1.92,1.12,4.47,1.12,5.92c0,1.94,1.63,2.6,4.64,2.57C9.02,8.44,12.13,7.73,16.42,6.07z"/>
</g>
</svg>
