<?xml version="1.0" encoding="utf-8"?>
<!-- Generator: Adobe Illustrator 24.0.0, SVG Export Plug-In . SVG Version: 6.00 Build 0)  -->
<svg version="1.1" id="Layer_1" xmlns="http://www.w3.org/2000/svg" xmlns:xlink="http://www.w3.org/1999/xlink" x="0px" y="0px"
	 viewBox="0 0 14 20" style="enable-background:new 0 0 14 20;" xml:space="preserve">
<style type="text/css">
	.st0{fill:#202020;}
</style>
<path class="st0" d="M13.4,20H10.6c-0.33,0-0.6-0.27-0.6-0.6V0.6C10,0.27,10.27,0,10.6,0h2.81C13.73,0,14,0.27,14,0.6V19.4
	C14,19.73,13.73,20,13.4,20z"/>
<path class="st0" d="M3.4,20H0.6C0.27,20,0,19.73,0,19.4V0.6C0,0.27,0.27,0,0.6,0H3.4C3.73,0,4,0.27,4,0.6V19.4
	C4,19.73,3.73,20,3.4,20z"/>
</svg>
