<?xml version="1.0" encoding="utf-8"?>
<!-- Generator: Adobe Illustrator 24.2.1, SVG Export Plug-In . SVG Version: 6.00 Build 0)  -->
<svg version="1.1" id="Layer_1" xmlns="http://www.w3.org/2000/svg" xmlns:xlink="http://www.w3.org/1999/xlink" x="0px" y="0px"
	 viewBox="0 0 15.14 10.43" style="enable-background:new 0 0 15.14 10.43;" xml:space="preserve">
<style type="text/css">
	.st0{fill:#BB2926;}
</style>
<g>
	<path class="st0" d="M12.07,5.27c0.01,0.06,0.38,0.55,0.55,0.81c0.35,0.45,0.5,0.63,0.81,0.94l0.39,0.46l0.52,0.61
		c0.15,0.23,0.33,0.49,0.43,0.63c0.18,0.26,0.38,0.52,0.38,0.79c0,0.22-0.02,0.34-0.18,0.47c-0.25,0.19-0.52,0.46-0.8,0.46
		c-0.18,0-0.27,0-0.41-0.14C13.43,9.94,13.23,9.56,13,9.23c-0.3-0.34-0.34-0.43-0.6-0.77c-0.27-0.32-0.7-0.76-0.94-1.1
		c-0.28-0.41-0.63-0.87-0.86-1.16c-0.27-0.38-0.39-0.6-0.7-0.93C9.84,5.16,9.23,4.56,9.23,4.49c-0.02-0.06-0.2-0.23-0.22-0.26
		c-0.43-0.6-0.87-0.9-1.28-1.56C7.5,2.38,7.16,2.16,6.95,1.91C6.32,2.65,6.11,3.02,5.47,3.82C5.33,4.05,5.25,4.23,5,4.46
		C4.76,4.72,4.58,4.82,4.51,4.96C4.37,5.3,3.95,5.68,3.74,5.91L3.21,6.69C3.15,6.75,2.75,7.18,2.72,7.28
		c-0.2,0.26-0.97,1.1-0.97,1.38c-0.56,0.46-0.49,1.1-1.28,1.1C0.18,9.76,0.15,9.7,0,9.53c0.33-0.43,0.55-0.84,0.87-1.3
		C1.1,7.88,1.28,7.79,1.68,7.24c0.21-0.29,0.5-0.61,0.88-1.13c0.23-0.33,0.52-0.7,0.79-1.04c0,0,0.32-0.46,0.68-0.93l0.3-0.45
		C4.41,3.6,4.66,3.34,4.8,3.13C5.1,2.78,5.13,2.78,5.53,2.26C5.73,2,5.91,1.85,6.12,1.54c0.23-0.29,0.43-0.61,0.75-0.97
		C7.07,0.38,7.3,0,7.58,0c0.3,0,0.43,0.33,0.68,0.61C8.48,0.88,8.68,1.2,8.87,1.39l0.75,0.75c0.2,0.23,0.36,0.39,0.6,0.69
		c0.32,0.29,0.33,0.38,0.69,0.74c0.15,0.19,0.21,0.3,0.61,0.86l0.25,0.45L12.07,5.27z"/>
</g>
</svg>
